<?xml version="1.0" encoding="utf-8"?>
<svg version="1.0" width="1900.000000pt" height="800.000000pt" viewBox="0 0 1900.000000 800.000000" preserveAspectRatio="xMidYMid meet" xmlns="http://www.w3.org/2000/svg">
  <g transform="translate(0.000000,800.000000) scale(0.100000,-0.100000)" fill="#000000" stroke="none">
    <path d="M1374 4933 c3 -21 49 -436 101 -923 52 -487 98 -904 101 -927 l6 -43 387 0 386 0 460 914 c253 503 461 913 462 912 2 -2 -274 -1583 -313 -1793 l-6 -33 301 0 301 0 5 23 c6 27 335 1892 335 1901 0 3 -273 5 -606 4 l-606 -3 -310 -633 c-171 -348 -313 -631 -315 -628 -2 2 -103 1234 -103 1263 0 2 -133 3 -296 3 l-296 0 6 -37z" style="fill: rgb(219, 45, 45);"/>
    <path d="M4065 4014 c-258 -526 -472 -961 -473 -965 -2 -5 134 -8 318 -7 l323 3 80 183 81 182 277 0 276 0 22 -167 c12 -93 25 -176 27 -185 5 -17 64 -18 1065 -18 582 0 1059 4 1059 8 0 4 18 109 40 232 22 124 40 233 40 243 0 16 -28 17 -450 17 l-450 0 5 23 c9 37 245 1384 245 1396 0 8 -82 11 -302 9 l-302 -3 -165 -942 c-91 -518 -168 -944 -171 -947 -3 -2 -61 410 -129 917 -68 507 -125 934 -128 950 l-5 27 -407 0 -406 0 -470 -956z m790 92 c19 -130 35 -248 35 -262 l0 -24 -161 0 c-88 0 -159 4 -157 9 15 40 242 521 244 518 2 -2 19 -110 39 -241z" style="fill: rgb(219, 45, 45);"/>
    <path d="M8114 4946 c-360 -59 -637 -280 -765 -611 -48 -123 -69 -240 -69 -388 0 -403 181 -716 503 -872 221 -106 488 -132 733 -70 322 82 584 341 674 669 20 72 30 92 30 61 0 -36 33 -150 65 -227 46 -109 114 -206 202 -288 124 -116 262 -185 449 -226 110 -24 369 -24 478 0 382 84 664 350 757 713 28 113 40 266 29 383 -51 533 -428 869 -975 869 -293 0 -543 -97 -730 -284 -142 -141 -239 -329 -275 -532 l-13 -73 -489 0 -488 0 0 -175 0 -175 190 0 c105 0 190 -4 190 -9 0 -5 -15 -31 -33 -57 -120 -174 -403 -212 -560 -74 -99 88 -149 209 -150 365 -2 210 91 378 251 453 51 24 69 27 167 27 100 0 115 -3 166 -27 69 -34 133 -97 156 -155 l18 -43 283 0 c157 0 282 4 282 9 0 27 -55 191 -81 244 -73 145 -181 272 -303 356 -70 48 -182 98 -271 121 -103 27 -307 35 -421 16z m2236 -532 c100 -33 186 -125 232 -249 32 -87 32 -272 -1 -365 -62 -178 -194 -292 -356 -306 -178 -16 -329 78 -396 246 -27 69 -37 241 -19 333 35 181 171 329 327 357 60 11 154 4 213 -16z" style="fill: rgb(219, 45, 45);"/>
    <path d="M11270 3990 l0 -970 290 0 290 0 2 528 3 527 353 -527 353 -528 289 0 290 0 0 970 0 970 -290 0 -290 0 -2 -524 -3 -523 -354 523 -354 524 -288 0 -289 0 0 -970z" style="fill: rgb(219, 45, 45);"/>
    <path d="M13240 3990 l0 -970 753 2 752 3 0 225 0 225 -452 3 -453 2 0 140 0 140 365 0 365 0 0 225 0 225 -365 0 -365 0 0 150 0 150 253 0 c140 0 450 -3 690 -7 l437 -6 0 -739 0 -738 300 0 300 0 0 740 0 740 315 0 315 0 0 -740 0 -740 300 0 300 0 0 740 0 740 290 0 290 0 0 230 0 230 -2195 0 -2195 0 0 -970z" style="fill: rgb(219, 45, 45);"/>
  </g>
</svg>